# xmcd
# Track frame offsets:
# 183
# 13073
# 28518
# 39560
# 54503
# 75265
# 90428
# 107493
# 132535
# 148508
#
# Disc length: 2193 seconds
# Revision: 6
# Processed by: cddbd v1.5.2PL0 Copyright (c) Steve Scherf et al.
# Submitted via: VisiTrax 2.10.3.257 - For more info visit www.synapsa.com
#
DISCID=74088f0a
DTITLE=Murphey, Micheal Martin - Whats Forever For
DYEAR=1992
DGENRE=Country
TTITLE0=Whats Forever For
TTITLE1=Don't Count The Rainy Days
TTITLE2=Radio Land
TTITLE3=Love Affairs
TTITLE4=The 2-Step is Easy
TTITLE5=Disenchanted
TTITLE6=The Heart Never Lies
TTITLE7=Maybe This Time
TTITLE8=Will It Be Love By Morning
TTITLE9=What She Wants
EXTD=32
EXTT0=
EXTT1=
EXTT2=
EXTT3=
EXTT4=
EXTT5=
EXTT6=
EXTT7=
EXTT8=
EXTT9=
PLAYORDER=
